<svg width="857" height="194" viewBox="0 0 857 194" fill="none" xmlns="http://www.w3.org/2000/svg">
<g clip-path="url(#clip0_830_559)">
<path d="M189 168.389C189 173.606 185.013 176.651 179.024 176.651H164.725V186.175H161.596V160.11H179.007C184.996 160.11 188.983 163.156 188.983 168.372L189 168.389ZM185.803 168.389C185.803 164.738 183.044 163.021 178.805 163.021H164.742V173.74H178.805C183.044 173.74 185.803 172.024 185.803 168.372V168.389Z" fill="#FAFAFA"/>
<path d="M194.315 160.127L205.25 174.245L216.117 160.127H219.835L206.764 177.072V186.192H203.635V177.072L190.53 160.127H194.282H194.315Z" fill="#FAFAFA"/>
<path d="M249.056 162.954H236.742V186.192H233.613V162.954H221.332V160.127H249.056V162.954Z" fill="#FAFAFA"/>
<path d="M281.876 160.127V186.192H278.747V174.464H257.315V186.192H254.186V160.127H257.315V171.485H278.747V160.127H281.876Z" fill="#FAFAFA"/>
<path d="M288.571 173.151C288.571 164.67 294.526 159.336 304.435 159.336C314.343 159.336 320.282 164.653 320.282 173.151C320.282 181.649 314.326 186.966 304.435 186.966C294.543 186.966 288.571 181.649 288.571 173.151ZM317.085 173.151C317.085 166.151 312.106 162.247 304.435 162.247C296.764 162.247 291.784 166.151 291.784 173.151C291.784 180.151 296.764 184.055 304.435 184.055C312.106 184.055 317.085 180.151 317.085 173.151Z" fill="#FAFAFA"/>
<path d="M354.65 160.127V186.192H351.891L330.005 164.115V186.192H326.96V160.127H330.341L351.588 181.615V160.127H354.633H354.65Z" fill="#FAFAFA"/>
<path d="M402.577 168.389C402.577 173.606 398.59 176.651 392.601 176.651H378.302V186.175H375.173V160.11H392.601C398.59 160.11 402.577 163.156 402.577 168.372V168.389ZM399.38 168.389C399.38 164.738 396.622 163.021 392.382 163.021H378.319V173.74H392.382C396.622 173.74 399.38 172.024 399.38 168.372V168.389Z" fill="#FAFAFA"/>
<path d="M426.801 179.192H409.238L405.436 186.192H401.971L416.304 160.127H419.803L434.136 186.192H430.603L426.801 179.192ZM425.27 176.365L418.02 163.004L410.769 176.365H425.287H425.27Z" fill="#FAFAFA"/>
<path d="M463.221 186.192L454.592 176.214H442.193V186.192H439.031V160.127H456.526C462.33 160.127 466.502 163.038 466.502 168.17C466.502 172.714 463.221 175.541 458.427 176.096L467.326 186.192H463.238H463.221ZM456.291 173.303C460.496 173.303 463.289 171.704 463.289 168.17C463.289 164.637 460.496 163.038 456.291 163.038H442.143V173.319H456.291V173.303Z" fill="#FAFAFA"/>
<path d="M494.41 179.192H476.848L473.046 186.192H469.58L483.913 160.127H487.412L501.745 186.192H498.212L494.41 179.192ZM492.879 176.365L485.629 163.004L478.378 176.365H492.896H492.879Z" fill="#FAFAFA"/>
<path d="M520.367 163.021V172.142H538.754V175.053H520.367V186.192H517.238V160.127H542.034V163.038H520.367V163.021Z" fill="#FAFAFA"/>
<path d="M547.687 186.192V160.127H550.816V186.192H547.687Z" fill="#FAFAFA"/>
<path d="M587.135 160.127V186.192H584.376L562.49 164.115V186.192H559.445V160.127H562.827L584.074 181.615V160.127H587.118H587.135Z" fill="#FAFAFA"/>
<path d="M616.86 179.192H599.298L595.496 186.192H592.03L606.363 160.127H609.862L624.195 186.192H620.662L616.86 179.192ZM615.329 176.365L608.079 163.004L600.829 176.365H615.346H615.329Z" fill="#FAFAFA"/>
<path d="M656.797 160.127V186.192H654.038L632.152 164.115V186.192H629.107V160.127H632.488L653.735 181.615V160.127H656.78H656.797Z" fill="#FAFAFA"/>
<path d="M689.533 179.074L692.511 180.572C690.055 184.476 685.513 186.983 679.154 186.983C669.447 186.983 663.492 181.615 663.492 173.168C663.492 164.721 669.447 159.353 679.271 159.353C685.529 159.353 690.071 161.877 692.527 165.764L689.55 167.262C687.498 163.795 683.78 162.281 679.238 162.281C671.684 162.281 666.688 166 666.688 173.185C666.688 180.37 671.668 184.089 679.238 184.089C683.78 184.089 687.531 182.608 689.55 179.108L689.533 179.074ZM675.756 194L673.182 193.327L677.017 187.522L680.18 188.111L675.756 194Z" fill="#FAFAFA"/>
<path d="M719.073 179.192H701.511L697.709 186.192H694.243L708.576 160.127H712.075L726.408 186.192H722.875L719.073 179.192ZM717.542 176.365L710.292 163.004L703.041 176.365H717.559H717.542Z" fill="#FAFAFA"/>
<path d="M756.587 178.62C756.587 183.416 751.709 186.966 743.23 186.966C737.527 186.966 732.06 185.183 728.006 181.598L730.21 179.259C734.011 182.608 738.217 184.055 743.415 184.055C749.707 184.055 753.391 182.086 753.391 178.839C753.391 175.591 749.555 174.884 742.524 174.295C735.559 173.706 728.897 172.175 728.897 167.043C728.897 161.911 735.071 159.336 742.036 159.336C747.688 159.336 752.348 161.305 755.359 163.997L752.903 166.084C750.38 163.593 746.544 162.281 742.187 162.247C737.527 162.214 732.094 163.509 732.094 166.942C732.094 170.19 737.006 170.846 743.146 171.334C751.069 171.973 756.587 173.488 756.587 178.637V178.62Z" fill="#FAFAFA"/>
<path d="M147.549 0L124.317 86.4746H37.8672L61.0989 0H147.549ZM125.663 17.2983H73.7998L59.7531 69.1763H111.617L116.478 51.878H81.9082L86.5007 34.5798H121.071L125.663 17.2815V17.2983Z" fill="#00F0C9"/>
<path d="M257.214 0L233.983 86.4746H147.532L170.781 0H257.231H257.214ZM183.465 17.2983L169.418 69.1763H221.282L235.328 17.2983H183.465Z" fill="#00F0C9"/>
<path d="M278.865 0H365.315L360.723 17.2983H326.153L307.513 86.4746H290.22L308.859 17.2983H274.289L278.882 0L278.865 0Z" fill="#00F0C9"/>
<path d="M406.345 0H492.795L488.203 17.2983H419.046L404.999 69.1763H474.156L469.563 86.4746H383.113L406.345 0Z" fill="#F2F4F8"/>
<path d="M545.601 86.4746L550.193 69.1763H566.948L561.817 25.9474L522.1 86.4746H502.384L560.186 0H577.479L588.817 86.4746H545.601Z" fill="#F2F4F8"/>
<path d="M619.215 86.4746L642.447 0H728.897L705.666 86.4746H688.372L707.012 17.2983H689.718L671.079 86.4746H653.785L672.425 17.2983H655.131L636.492 86.4746H619.199H619.215Z" fill="#F2F4F8"/>
<path d="M764.611 86.4746H747.318L770.567 0H857.017L843.239 51.878H774.082L764.628 86.4578L764.611 86.4746ZM830.522 34.5966L835.114 17.2983H783.251L778.658 34.5966H830.522Z" fill="#F2F4F8"/>
<path d="M61.0989 0H4.28971L0 17.2983H56.456L61.0989 0Z" fill="#00F0C9"/>
<path d="M747.335 86.4746L740.841 111.244L37.8672 114.761L30.5494 127.196L754.383 124.975L764.611 86.4746H747.335Z" fill="#F2F4F8"/>
</g>
<defs>
<clipPath id="clip0_830_559">
<rect width="857" height="194" fill="white"/>
</clipPath>
</defs>
</svg>
